<svg width="135" height="34" viewBox="0 0 135 34" fill="none" xmlns="http://www.w3.org/2000/svg">
<path id="Vector" d="M31.705 14.62V14.79C31.705 16.405 31.62 17.425 31.45 17.85C31.195 18.53 30.855 19.04 30.26 19.38C29.75 19.72 29.155 19.8909 28.39 19.8909C27.6259 19.8909 27.03 19.7208 26.5209 19.38C26.01 19.0408 25.6709 18.53 25.415 17.85C25.16 17.255 25.0759 16.235 25.0759 14.705V5.95H20.5709V14.79C20.6559 16.83 20.8259 18.275 21.0809 19.21C21.5909 20.7409 22.4409 21.93 23.6309 22.8659C24.8209 23.7158 26.4359 24.1409 28.3059 24.1409C30.0909 24.1409 31.5359 23.8009 32.7259 23.035C33.915 22.2709 34.765 21.25 35.3609 19.805C35.7859 18.87 36.0409 17.17 36.0409 14.79V5.95H31.62V14.62H31.705ZM18.53 0H14.11V6.885C14.025 6.885 13.94 6.8 13.855 6.8C12.41 5.95 10.795 5.525 9.18 5.525C6.885 5.525 4.845 6.29 3.06 7.905C1.02 9.775 0 12.07 0 14.79C0 17.34 0.935 19.55 2.72 21.335C4.505 23.1209 6.71415 24.055 9.18 24.055C10.88 24.055 12.495 23.63 13.94 22.8659C15.385 22.0159 16.49 20.91 17.34 19.4658C18.105 18.1908 18.4459 16.83 18.53 15.3858V14.7908V0ZM12.6642 18.53C11.7292 19.4658 10.625 19.975 9.17915 19.975C7.81915 19.975 6.62915 19.465 5.77915 18.53C4.84415 17.595 4.41915 16.32 4.41915 14.79C4.41915 13.345 4.84415 12.07 5.77915 11.135C6.71415 10.2 7.81915 9.69 9.17915 9.69C10.6242 9.69 11.7292 10.2 12.6642 11.135C13.6 12.07 14.025 13.345 14.025 14.79C14.025 16.32 13.6 17.595 12.6642 18.53ZM54.995 10.2C54.145 8.755 53.0392 7.65 51.595 6.8C50.15 5.95 48.535 5.525 46.92 5.525C44.625 5.525 42.5842 6.29 40.8 7.905C38.76 9.775 37.7392 11.985 37.7392 14.79C37.7392 17.34 38.675 19.55 40.4592 21.335C42.245 23.1209 44.4542 24.055 46.92 24.055C48.62 24.055 50.2342 23.63 51.68 22.8659C53.125 22.0159 54.23 20.91 55.08 19.4658C55.93 18.0208 56.355 16.4909 56.355 14.7908C56.185 13.175 55.845 11.645 54.995 10.2ZM50.405 18.53C49.47 19.4658 48.365 19.975 46.92 19.975C45.475 19.975 44.37 19.465 43.52 18.53C42.585 17.595 42.16 16.32 42.16 14.79C42.16 13.345 42.585 12.07 43.5209 11.135C44.4559 10.2 45.56 9.69 46.9209 9.69C48.365 9.69 49.4709 10.2 50.4059 11.135C51.3409 12.07 51.7659 13.345 51.7659 14.79C51.7642 16.32 51.255 17.595 50.405 18.53ZM71.655 23.8H76.16V6.715H71.655V23.8ZM64.005 19.21C63.495 18.8709 63.07 18.36 62.9 17.68C62.73 17.17 62.645 16.15 62.645 14.62V0H58.225V14.535C58.31 16.915 58.48 18.53 58.905 19.55C59.5 20.91 60.35 22.015 61.54 22.78C62.73 23.545 64.1759 23.885 65.96 23.885H69.36V19.72H65.875C65.11 19.72 64.5142 19.55 64.005 19.21ZM93.67 10.03C93.075 8.67 92.225 7.565 91.0342 6.8C89.845 6.035 88.3992 5.695 86.6142 5.695C84.6592 5.695 83.1292 6.12 81.9392 6.97C80.75 7.82 79.9 9.01 79.3892 10.625C79.1342 11.475 78.9642 13.005 78.8792 15.045V23.8H83.3842V15.3V14.96C83.3842 13.515 83.47 12.41 83.7242 11.815C83.9792 11.135 84.3192 10.71 84.8292 10.285C85.3392 9.945 85.9342 9.775 86.6992 9.775C87.4633 9.775 88.0592 9.945 88.5692 10.285C89.0792 10.625 89.5042 11.135 89.7583 11.815C89.9283 12.325 90.0133 13.345 90.0133 14.875V23.8H94.4333V16.32V14.96C94.35 12.665 94.095 10.965 93.67 10.03ZM73.78 0.34C72.505 0.34 71.4 1.445 71.4 2.72C71.4 3.995 72.42 5.1 73.78 5.1C75.055 5.1 76.16 4.08 76.16 2.72C76.16 1.36 75.055 0.34 73.78 0.34ZM133.195 10.37C132.345 8.925 131.239 7.82 129.795 6.97C128.35 6.12 126.82 5.78 125.034 5.78C122.484 5.78 120.359 6.715 118.574 8.5C116.788 10.285 115.854 12.495 115.854 15.045C115.854 17.765 116.874 20.0592 118.914 21.93C120.7 23.545 122.739 24.31 125.034 24.31C126.734 24.31 128.264 23.885 129.709 23.035C131.154 22.185 132.345 21.08 133.109 19.635C133.959 18.1909 134.384 16.66 134.384 15.0459C134.47 13.345 134.045 11.815 133.195 10.37ZM129.964 15.045C129.964 16.575 129.539 17.765 128.604 18.7C127.669 19.635 126.564 20.145 125.119 20.145C123.758 20.145 122.569 19.6342 121.719 18.7C120.783 17.765 120.358 16.49 120.358 15.045C120.358 13.515 120.783 12.24 121.719 11.305C122.654 10.37 123.758 9.86 125.119 9.86C126.479 9.86 127.669 10.37 128.604 11.305C129.539 12.24 129.964 13.515 129.964 15.045C129.964 14.96 129.964 14.96 129.964 15.045ZM114.325 14.28C114.239 12.835 113.814 11.56 113.135 10.285C112.285 8.84 111.18 7.735 109.821 6.885C108.376 6.035 106.846 5.695 105.146 5.695C102.596 5.695 100.471 6.545 98.685 8.415C96.9 10.2 96.05 12.41 96.05 14.96C96.05 17.68 97.07 19.975 99.025 21.76C100.81 23.375 102.764 24.1409 105.06 24.1409C106.675 24.1409 108.29 23.7158 109.735 22.8659C109.821 22.78 109.905 22.78 109.99 22.6959V24.735C109.99 26.2659 109.48 27.455 108.63 28.3909C107.695 29.3259 106.59 29.835 105.23 29.835C103.87 29.835 102.765 29.41 101.83 28.475L98.94 31.535L99.025 31.62C100.81 33.2341 102.85 34 105.06 34C106.675 34 108.29 33.575 109.735 32.725C111.18 31.875 112.285 30.77 113.135 29.325C113.985 27.88 114.325 26.35 114.325 24.735V15.47V14.875C114.41 14.705 114.41 14.45 114.325 14.28ZM109.989 14.875C109.989 16.405 109.564 17.595 108.629 18.53C107.694 19.4658 106.589 19.975 105.229 19.975C103.869 19.975 102.764 19.465 101.829 18.53C100.894 17.595 100.469 16.405 100.469 14.875C100.469 13.345 100.894 12.155 101.829 11.135C102.764 10.2 103.869 9.69 105.229 9.69C106.589 9.69 107.779 10.2 108.629 11.135C109.48 12.155 109.989 13.345 109.989 14.875Z" fill="black"/>
</svg>
