<svg width="117" height="38" viewBox="0 0 117 38" fill="none" xmlns="http://www.w3.org/2000/svg">
<path id="Union" fill-rule="evenodd" clip-rule="evenodd" d="M15.3728 0H14.3376C11.4077 0.175794 8.53636 1.1329 6.1729 2.87131C3.71178 4.62925 1.79758 7.14897 0.801409 10.0007C-0.292422 13.126 -0.272889 16.6419 0.899073 19.7476C2.14917 23.1267 4.68842 25.998 7.87225 27.6974C10.5287 29.1428 13.6149 29.7092 16.6034 29.4163C19.6895 29.1623 22.7171 27.8732 24.9048 25.6855C28.1863 22.5993 29.202 17.7357 28.4988 13.419H14.8454V17.4427C17.007 17.4557 19.1687 17.4514 21.3303 17.447C22.4111 17.4449 23.4919 17.4427 24.5727 17.4427C24.3383 19.435 23.6156 21.486 22.053 22.8337C20.0607 24.7479 17.2089 25.5878 14.4743 25.4316C11.5444 25.3339 8.71215 23.9276 6.85655 21.6813C4.92281 19.3764 4.0829 16.2512 4.49309 13.2822C4.86421 10.2742 6.58309 7.46149 9.12234 5.80121C11.4467 4.21906 14.4352 3.69168 17.2089 4.27766C19.084 4.62925 20.8029 5.62542 22.2288 6.91458C22.7532 6.36789 23.2903 5.83395 23.8292 5.29819C24.2338 4.89598 24.6395 4.49275 25.0415 4.08233C22.5022 1.52355 18.9668 0.0781308 15.3728 0ZM96.844 1.01526H92.664C92.664 4.10505 92.6662 7.19484 92.6683 10.2839L92.6684 10.3143C92.6727 16.5105 92.677 22.7038 92.664 28.8884C93.7046 28.9177 94.7563 28.9141 95.8024 28.9104H95.8027H95.8029H95.8031C96.1509 28.9092 96.4981 28.908 96.844 28.908V1.01526ZM37.7967 10.6847C40.3751 10.1964 43.1682 10.7433 45.2973 12.2864C47.231 13.6537 48.5788 15.8023 48.989 18.1462C49.5164 20.8613 48.8522 23.8303 47.0943 25.9788C45.1996 28.3814 42.0939 29.6705 39.0664 29.4752C36.2927 29.3189 33.5972 27.9321 31.9565 25.6663C30.1009 23.1661 29.6516 19.7284 30.6673 16.7985C31.683 13.6537 34.5543 11.2512 37.7967 10.6847ZM38.3827 14.396C37.328 14.6694 36.3513 15.2749 35.6481 16.1344C33.7535 18.4002 33.8707 22.0918 35.9607 24.2014C37.1522 25.4124 38.9492 25.9788 40.6094 25.6468C42.1525 25.3733 43.5003 24.3381 44.2425 22.9708C45.5317 20.6464 45.1606 17.4431 43.1878 15.6265C41.9181 14.4546 40.0625 13.9662 38.3827 14.396ZM66.8801 13.0092C64.6729 10.9387 61.45 10.1183 58.5006 10.6848C55.3167 11.2317 52.504 13.5561 51.4297 16.6032C50.3554 19.5917 50.7656 23.1076 52.6603 25.6664C54.3401 27.9907 57.1333 29.3971 59.9655 29.4752C62.9345 29.612 65.9425 28.3228 67.7981 25.9789C70.8648 22.2677 70.4741 16.2321 66.8801 13.0092ZM56.352 16.1149C57.0551 15.275 58.0318 14.6694 59.0865 14.396C60.7468 13.9663 62.6024 14.4351 63.8721 15.607C65.8644 17.4236 66.2355 20.6269 64.9659 22.9708C64.2236 24.3381 62.8564 25.3538 61.3328 25.6468C59.6139 25.9984 57.7583 25.3734 56.5668 24.1037C54.555 21.9747 54.4768 18.3416 56.352 16.1149ZM76.0608 11.8173C78.3071 10.4109 81.2956 10.0203 83.7176 11.2313C84.4794 11.5634 85.1045 12.1298 85.71 12.6963C85.7197 12.4326 85.7197 12.1641 85.7197 11.8931C85.7197 11.622 85.7197 11.3485 85.7295 11.0751C86.3839 11.0848 87.0382 11.0848 87.695 11.0848C88.3518 11.0848 89.011 11.0848 89.6751 11.0946V28.3224C89.6556 30.9203 88.9915 33.6744 87.1163 35.5691C85.0654 37.6591 81.9206 38.3036 79.0884 37.8739C76.0608 37.4247 73.4239 35.2175 72.2519 32.4243C72.9798 32.0725 73.7302 31.7659 74.4846 31.4577C74.9449 31.2697 75.4066 31.0811 75.8655 30.8812C76.5491 32.4829 77.936 33.8502 79.6744 34.1627C81.4128 34.4752 83.4247 34.0455 84.5575 32.6001C85.7686 31.1156 85.7686 29.0842 85.71 27.2677C84.8115 28.1466 83.7762 28.9279 82.5262 29.2209C79.8111 29.9827 76.8226 29.0451 74.7326 27.2091C72.6231 25.373 71.373 22.5408 71.4902 19.728C71.5488 16.5442 73.3458 13.4776 76.0608 11.8173ZM80.1041 14.3175C78.9126 14.5128 77.7992 15.1769 77.0375 16.095C75.2014 18.2826 75.2014 21.779 77.057 23.9276C78.1118 25.1972 79.8111 25.9004 81.4519 25.7246C82.9949 25.5683 84.4208 24.5917 85.1826 23.2439C86.4718 20.9586 86.2569 17.8529 84.5185 15.8606C83.4442 14.63 81.7253 14.0245 80.1041 14.3175ZM110.829 11.0358C107.821 9.88337 104.208 10.6256 101.864 12.8133C98.2112 16.1924 97.8987 22.482 101.141 26.2322C103.114 28.6152 106.356 29.7872 109.403 29.4161C112.158 29.1621 114.716 27.5605 116.24 25.2751C115.703 24.9138 115.166 24.5573 114.628 24.2008C114.091 23.8444 113.554 23.4879 113.017 23.1265C112.587 23.6735 112.138 24.2399 111.572 24.6696C110.146 25.8025 108.114 26.0174 106.415 25.4119C105.204 25.0017 104.305 23.986 103.719 22.8726C105.839 21.9937 107.953 21.1197 110.067 20.2456C112.182 19.3715 114.296 18.4973 116.416 17.6183C115.498 14.8251 113.681 12.1101 110.829 11.0358ZM103.036 19.7083C103.016 18.5559 103.29 17.3839 103.954 16.4268C104.989 14.9033 106.923 13.9071 108.778 14.2392C109.931 14.415 111.064 15.0791 111.533 16.1729C108.701 17.3641 105.87 18.5358 103.038 19.7074L103.036 19.7083Z" fill="black"/>
</svg>
