<svg width="151" height="36" viewBox="0 0 151 36" fill="none" xmlns="http://www.w3.org/2000/svg">
<path id="Vector" d="M16.1544 0.0388269C14.2085 0.256895 11.2898 1.16271 9.62911 2.06853C5.1671 4.46728 2.14771 8.20798 0.638006 13.19C0.336066 14.1629 -0.0161976 16.8133 0.000576877 18.0546C0.000576877 19.1449 0.336066 21.8121 0.537359 22.4495C0.638006 22.7514 0.856073 23.4727 1.04059 24.0263C1.34253 24.9656 2.80191 27.9179 3.05352 28.1192C3.10385 28.1696 3.37224 28.5051 3.62386 28.8909C4.24451 29.8135 5.87163 31.4574 7.09617 32.3967C8.03553 33.118 10.6859 34.6445 11.0214 34.6613C11.1053 34.6613 11.122 34.0238 11.0717 33.1851C10.9543 31.3232 11.3065 28.7902 12.0614 26.207C12.1956 25.7708 12.2962 25.2005 12.2962 24.9489C12.2962 24.6973 12.3633 24.4289 12.4472 24.345C12.5311 24.2443 12.6821 23.7579 12.7659 23.2547C12.8666 22.7514 13.0343 21.9798 13.1517 21.5437C13.3195 20.8895 13.3027 20.6378 13.0679 19.9333C12.7324 18.8597 12.7156 17.1152 13.0511 16.2765C13.8395 14.2803 14.7118 13.5255 16.1879 13.5255C17.966 13.5255 18.8215 14.8674 18.486 17.1152C18.335 18.1384 17.9157 19.7488 17.6473 20.252C17.5802 20.403 17.4628 20.8224 17.4124 21.1746C17.3453 21.5437 17.2112 22.0637 17.1273 22.3488C16.8924 23.003 17.3453 24.2779 17.9492 24.7644C18.5196 25.2173 19.7105 25.3515 20.8009 25.0998C21.5725 24.9321 21.8912 24.7308 22.6964 23.9592C23.6525 23.0198 24.3738 21.9295 24.3738 21.4095C24.3738 21.2585 24.4577 21.0572 24.5584 20.9566C25.028 20.4869 25.2797 16.83 24.9274 15.2868C24.5416 13.5926 23.3506 11.9319 21.8073 10.959C20.2641 9.9693 17.077 9.68413 15.1143 10.3551C13.7388 10.8248 12.5143 11.6132 11.7259 12.5358C11.0214 13.3577 10.2833 14.6997 10.2833 15.1694C10.2833 15.3371 10.1994 15.5552 10.0988 15.6558C9.99814 15.7565 9.88072 16.3939 9.8304 17.0817C9.74653 18.1049 9.81362 18.5746 10.1156 19.5811C10.3169 20.2688 10.6859 21.074 10.904 21.3759C11.3569 21.9798 11.3569 22.2146 10.9375 23.825C10.8201 24.2611 10.6188 24.6637 10.5014 24.714C9.44459 25.1166 7.29746 22.5837 6.57616 20.0675C6.30777 19.1114 6.29099 15.7062 6.55938 14.6997C6.6768 14.2803 6.8781 13.71 7.01229 13.4081C7.14649 13.1229 7.26391 12.8377 7.26391 12.7706C7.26391 12.7035 7.5994 12.1332 8.01876 11.5125C10.1994 8.22475 13.7388 6.48021 18.2176 6.48021C19.2409 6.48021 20.2976 6.54731 20.5828 6.63118C22.8977 7.35248 23.5183 7.58733 24.4242 8.12411C26.1855 9.1809 27.4603 10.6235 28.7352 13.039C28.8191 13.19 28.9365 13.5926 28.9868 13.9281C29.0539 14.2636 29.1713 14.5823 29.2552 14.6326C29.3391 14.6829 29.4062 15.7733 29.4062 17.0649C29.4062 19.3965 29.2384 20.3359 28.5339 22.2482C27.7455 24.345 25.7158 26.6599 23.8706 27.5657C22.8138 28.0689 20.8344 28.6225 20.046 28.6225C18.9892 28.6225 16.9092 27.7502 16.3389 27.0457C16.0705 26.727 15.8189 26.8444 15.8189 27.2973C15.8189 27.465 15.7518 27.7502 15.6511 27.9179C15.5673 28.0689 15.4163 28.5386 15.3324 28.958C14.846 31.1722 14.1582 32.9671 13.1014 34.6445C12.7827 35.1645 13.0511 35.4664 13.9234 35.5839C14.3595 35.651 14.9466 35.7684 15.215 35.8523C15.886 36.0703 19.526 36.0368 20.7506 35.8187C21.8577 35.6174 23.6525 35.1142 24.4577 34.7787C29.5236 32.6987 33.3649 28.4715 35.0256 23.0869C35.9147 20.2185 35.965 16.8804 35.1598 13.5255C34.8914 12.4351 34.8075 12.1835 34.0862 10.5061C33.0462 8.05701 30.6978 5.18858 28.3158 3.42726C26.2694 1.91756 24.2564 1.04529 21.1196 0.290443C20.2473 0.0891502 17.1441 -0.0785942 16.1544 0.0388269ZM60.8918 6.0944C60.2376 6.19505 59.1976 7.26861 58.9292 8.10733C58.644 9.02993 58.9292 10.0196 59.7344 10.7912C61.5124 12.519 64.5989 10.8919 64.2131 8.40927C63.9783 6.83248 62.5357 5.82601 60.8918 6.0944ZM42.6077 7.08409C42.4567 7.25184 42.4567 27.4818 42.6244 27.7167C42.7083 27.8509 43.4296 27.9012 44.8387 27.8844L46.9355 27.8676L47.0193 24.4624C47.0864 21.6946 47.1535 21.0237 47.3548 20.9062C47.489 20.8224 48.6297 20.7385 49.8878 20.7385C52.6388 20.7385 53.7962 20.5372 55.0543 19.8662C56.6982 18.9772 57.6543 17.7023 58.1743 15.6726C58.493 14.3977 58.493 13.4752 58.1576 12.1667C57.8556 10.9925 57.7214 10.7074 57.0001 9.75123C56.1111 8.56024 55.2053 7.90604 53.7291 7.38603C52.9072 7.11764 52.2194 7.06732 47.7742 7.01699C45.0064 6.98345 42.6748 7.01699 42.6077 7.08409ZM51.8168 11.2609C52.9407 11.6132 53.4943 12.1164 53.7459 13.0222C54.0646 14.2132 53.8298 15.3203 53.1252 15.9913C52.3536 16.7126 51.6658 16.8804 49.4181 16.8804C47.9419 16.8804 47.489 16.83 47.2877 16.612C47.0697 16.4107 47.0193 15.9242 47.0193 14.0119C47.0193 10.9925 47.0026 11.0093 49.3342 11.0093C50.3407 11.0093 51.3136 11.11 51.8168 11.2609ZM81.2392 10.2712C81.2392 11.4287 81.1553 12.519 81.0714 12.7035C80.954 12.9216 80.7192 13.0222 80.3166 13.0222C80.0147 13.0222 79.7295 13.0893 79.6959 13.19C79.6792 13.2739 79.6792 13.861 79.7295 14.4816C79.8134 15.5887 79.8301 15.6055 80.3334 15.7229C80.6185 15.7733 80.9372 15.8739 81.0379 15.941C81.1889 16.0249 81.2392 17.35 81.2392 20.7049C81.2392 25.2173 81.256 25.385 81.625 26.056C82.3966 27.4818 83.6044 27.985 86.0535 27.9179L87.6973 27.8676L87.7477 26.2405L87.798 24.5966H87.3786C86.7412 24.5966 85.8018 24.0934 85.7012 23.6908C85.6509 23.4895 85.6005 21.7114 85.6005 19.7152C85.6005 16.9642 85.6509 16.0416 85.8186 15.9074C85.936 15.8068 86.4057 15.7062 86.8586 15.6726L87.6973 15.6223V13.1061L86.7748 13.0558C86.2715 13.0222 85.8018 12.9048 85.7347 12.8042C85.6676 12.6868 85.6005 11.5964 85.6005 10.3719V8.15766H81.2392V10.2712ZM143.59 8.2583C143.523 8.3254 143.472 9.38219 143.472 10.6067C143.472 12.9887 143.456 13.0222 142.533 13.0222C142.114 13.0222 142.114 13.039 142.164 14.3139C142.214 15.5887 142.231 15.6223 142.667 15.6726C142.902 15.7062 143.187 15.8236 143.271 15.9242C143.372 16.0416 143.472 18.0714 143.523 20.6546C143.573 23.1372 143.657 25.4018 143.724 25.6702C143.925 26.4082 144.965 27.3476 145.955 27.6663C147.062 28.0354 149.88 28.0689 150.165 27.7167C150.3 27.5657 150.35 26.9618 150.316 26.0895L150.266 24.6805L149.679 24.5798C149.041 24.4792 148.32 24.1437 148.136 23.8585C148.069 23.7579 148.001 21.9295 148.001 19.7991C148.001 15.421 147.901 15.7062 149.36 15.7062C150.316 15.7062 150.4 15.5384 150.316 14.0119L150.266 13.1061L149.176 13.0222L148.085 12.9384L148.001 10.59L147.918 8.24153L145.804 8.19121C144.647 8.17443 143.657 8.20798 143.59 8.2583ZM72.9358 12.6197C72.1139 12.8377 71.1578 13.3913 70.5203 14.0455C69.7487 14.8507 69.5474 14.8003 69.4635 13.7771L69.4132 13.1061H65.2196V27.8676L67.3332 27.9012C69.4132 27.9515 69.4635 27.9347 69.5642 27.5657C69.6145 27.3644 69.6648 25.234 69.6648 22.8185C69.6648 18.0378 69.6816 17.9036 70.6713 16.9642C71.1074 16.5449 71.3423 16.461 72.2816 16.4107L73.372 16.3436L74.0262 17.0313C74.7978 17.8365 74.7139 17.0649 74.781 24.0095C74.7978 25.8547 74.8146 27.4818 74.8314 27.6496C74.8649 27.8844 75.1333 27.9179 77.012 27.8844L79.1424 27.8676V16.092L78.6559 15.1358C77.8172 13.4752 76.5256 12.6868 74.5462 12.5861C73.8417 12.5693 73.1204 12.5693 72.9358 12.6197ZM93.9039 12.6197C92.0923 13.1061 91.22 13.5926 90.0961 14.6997C88.5864 16.2262 87.8987 18.0043 87.8987 20.403C87.9154 24.6134 90.549 27.7334 94.4407 28.1025C97.762 28.4212 100.328 27.4483 101.972 25.2508C102.207 24.9321 102.71 23.9089 102.71 23.7243C102.71 23.6572 101.738 23.5901 100.563 23.5901H98.4162L97.913 24.1102C97.3259 24.714 96.5039 25.0998 95.7491 25.0998C94.9942 25.0998 93.8368 24.5631 93.3 23.9927C92.8974 23.5398 92.3103 22.2314 92.3103 21.7785C92.3103 21.6275 93.5349 21.5772 97.4769 21.5772C100.312 21.5772 102.71 21.5101 102.828 21.443C103.08 21.2753 102.845 18.6081 102.476 17.6352C101.721 15.6055 100.295 13.8945 98.8524 13.2906C98.433 13.1229 97.9465 12.9048 97.7788 12.821C97.4265 12.6364 94.4407 12.4855 93.9039 12.6197ZM97.1749 16.2933C97.8291 16.7462 98.3994 17.8197 98.3156 18.4236C98.2653 18.8094 98.2317 18.8094 95.3968 18.8598C92.1258 18.9101 92.109 18.8933 92.629 17.6855C92.9981 16.8468 93.7361 16.092 94.4239 15.8739C95.2123 15.6223 96.4872 15.8236 97.1749 16.2933ZM118.73 12.6197C116.784 13.1397 115.425 13.9952 114.369 15.3203C113.949 15.8571 113.614 16.3604 113.614 16.461C113.614 16.5449 113.496 16.8468 113.345 17.132C113.195 17.4004 112.976 18.2391 112.859 18.9939C112.272 22.5837 113.882 25.9386 116.902 27.4483L118.059 28.0354H120.491C123.008 28.0354 123.226 27.985 124.769 27.1631C125.893 26.5592 127.738 24.2108 127.453 23.7411C127.386 23.6572 126.43 23.5901 125.306 23.5901H123.242L122.823 24.0766C121.146 25.9721 118.009 24.9992 117.338 22.3656C117.237 22.0133 117.237 21.7114 117.321 21.6443C117.405 21.594 119.804 21.5604 122.672 21.5772C126.765 21.5772 127.872 21.5437 127.889 21.3759C128.04 19.2791 127.033 16.1758 125.775 14.8339C125.071 14.079 123.846 13.2403 123.242 13.0893C122.974 13.0222 122.672 12.9048 122.555 12.821C122.32 12.6364 119.25 12.4855 118.73 12.6197ZM121.347 15.8907C122.102 16.1591 122.974 17.0984 123.108 17.8197C123.309 18.9101 123.326 18.9101 120.206 18.8598C117.405 18.8094 117.388 18.8094 117.338 18.4236C117.271 17.9539 117.858 16.7965 118.361 16.3604C119.082 15.7565 120.34 15.5552 121.347 15.8907ZM133.324 12.6197C129.885 13.4416 128.644 14.6661 128.627 17.2159C128.627 19.9669 130.002 21.1243 134.079 21.8456C136.88 22.3321 137.685 22.7682 137.652 23.825C137.635 24.5798 137.115 25.0663 136.075 25.2844C134.766 25.5695 133.743 25.2508 132.921 24.3282L132.267 23.5901H130.237C128.593 23.5901 128.208 23.6405 128.208 23.825C128.208 24.3114 128.879 25.5863 129.432 26.2237C129.952 26.7773 130.355 27.0457 131.932 27.8005C132.083 27.8844 132.904 28.0186 133.726 28.1192C135.253 28.3038 137.903 28.136 138.574 27.8005C138.725 27.7334 139.161 27.5154 139.53 27.3476C140.487 26.8947 141.392 25.8715 141.728 24.8986C142.097 23.7914 141.996 22.2482 141.476 21.1746C140.856 19.9165 139.212 19.0107 136.763 18.5746C133.609 18.021 133.559 18.0043 133.055 17.5178C132.452 16.8971 132.452 16.6791 133.055 16.0081C133.542 15.4713 133.575 15.4545 134.917 15.4545C136.259 15.4545 136.293 15.4713 136.779 16.0081C137.048 16.31 137.266 16.6623 137.266 16.7965C137.266 16.9978 137.618 17.0481 139.363 17.0481C141.678 17.0481 141.61 17.0984 141.208 15.9074C140.47 13.7939 138.574 12.7203 135.421 12.6029C134.448 12.5693 133.508 12.5693 133.324 12.6197ZM111.014 12.9719C110.276 13.2235 109.253 14.0623 108.934 14.6661C108.615 15.27 108.33 15.0184 108.246 14.0119L108.162 13.1061H103.969L103.918 20.1514C103.901 24.0263 103.918 27.3644 103.969 27.5825C104.052 27.9515 104.103 27.9515 106.116 27.9179C107.273 27.9012 108.212 27.8005 108.28 27.6999C108.347 27.616 108.414 25.8379 108.414 23.7579C108.414 20.4701 108.447 19.883 108.733 19.1449C109.32 17.6184 110.578 16.7126 112.154 16.7126C112.591 16.7126 112.775 16.6287 112.825 16.4107C112.943 15.9242 112.96 13.6597 112.859 13.1564C112.758 12.7539 112.674 12.6868 112.222 12.7035C111.92 12.7203 111.383 12.8377 111.014 12.9719ZM59.3485 13.2235C59.2982 13.341 59.2814 16.6455 59.2982 20.5707L59.3485 27.6999L61.3447 27.7838C62.5525 27.8341 63.4247 27.8005 63.5589 27.6999C63.7435 27.5657 63.7938 26.1399 63.7938 20.4365C63.8105 16.5449 63.7602 13.2739 63.7099 13.19C63.5422 12.9384 59.4324 12.9719 59.3485 13.2235Z" fill="black"/>
</svg>
