<svg width="184" height="36" viewBox="0 0 184 36" fill="none" xmlns="http://www.w3.org/2000/svg">
<path id="Union" fill-rule="evenodd" clip-rule="evenodd" d="M178.996 0.00216088C180.627 0.0372015 181.677 0.332263 182.401 0.960048C183.235 1.68313 184.167 4.53976 183.564 8.40471C183.523 8.62675 183.466 8.78165 183.251 9.02628L183.252 9.02693C181.334 11.2256 179.51 13.5505 177.834 15.9421L177.725 16.0976C177.698 16.1363 177.652 16.1575 177.608 16.1569C177.595 16.1566 177.584 16.1546 177.575 16.1516C177.516 16.1363 177.476 16.0881 177.47 16.0301L177.453 15.8409C177.19 12.9403 177.083 9.97303 177.132 7.02044C177.136 6.82101 177.053 6.62943 176.907 6.49483C176.76 6.36155 176.558 6.29605 176.363 6.31767C173.388 6.64318 170.355 7.13408 167.351 7.77627L167.142 7.82048C167.083 7.83358 167.022 7.80673 166.992 7.75433C166.963 7.70259 166.969 7.63709 167.008 7.59223L167.152 7.4334C169.017 5.34658 170.973 3.34222 173.014 1.42606C173.227 1.21647 173.464 1.05109 173.763 0.946294C175.756 0.289036 177.516 -0.0296049 178.996 0.00216088ZM146.254 3.50983H143.077V11.7296H143.012C141.866 10.387 140.064 9.56826 138.329 9.56826C133.94 9.56826 130.829 13.3998 130.829 18.7378C130.829 24.305 133.777 27.9073 138.361 27.9073C140.13 27.9073 142.16 27.0231 143.274 25.7459H143.339V27.4161H146.254V3.50983ZM138.853 12.4829C141.243 12.4829 143.077 14.2513 143.077 16.5764V21.2266C143.077 23.388 141.243 25.0254 138.853 25.0254C135.742 25.0254 134.006 22.7658 134.006 18.7378C134.006 14.7425 135.742 12.4829 138.853 12.4829ZM121.005 27.9073C125.753 27.9073 128.864 24.2722 128.864 18.7378C128.864 13.3343 125.655 9.56826 121.005 9.56826C116.289 9.56826 113.047 13.3343 113.047 18.7378C113.047 24.2722 116.191 27.9073 121.005 27.9073ZM121.005 12.4829C123.887 12.4829 125.721 14.939 125.721 18.7378C125.721 22.5693 123.887 25.0254 121.005 25.0254C118.025 25.0254 116.191 22.6021 116.191 18.7378C116.191 14.8735 118.025 12.4829 121.005 12.4829ZM103.223 27.9073C107.971 27.9073 111.082 24.2722 111.082 18.7378C111.082 13.3343 107.873 9.56826 103.223 9.56826C98.5068 9.56826 95.2647 13.3343 95.2647 18.7378C95.2647 24.2722 98.4086 27.9073 103.223 27.9073ZM103.223 12.4829C106.104 12.4829 107.938 14.939 107.938 18.7378C107.938 22.5693 106.104 25.0254 103.223 25.0254C100.242 25.0254 98.4086 22.6021 98.4086 18.7378C98.4086 14.8735 100.242 12.4829 103.223 12.4829ZM81.9689 11.7951C82.8859 10.4852 84.8508 9.56826 86.7829 9.56826C90.5817 9.56826 92.9724 12.0571 92.9724 16.0197V27.4161H89.7958V16.8056C89.7958 14.0875 88.4203 12.5156 86.0297 12.5156C83.6064 12.5156 81.9034 14.153 81.9034 16.5109V27.4161H78.7269V3.50983H81.9034V11.7951H81.9689ZM64.4486 11.7296C65.3983 10.4525 67.3632 9.56826 69.1971 9.56826C73.0287 9.56826 75.452 12.0571 75.452 16.0524V27.4161H72.2427V16.9694C72.2427 13.9565 71.0638 12.5156 68.5749 12.5156C66.0533 12.5156 64.4486 14.0548 64.4486 16.5109V27.4161H61.272V10.0595H64.3831V11.7296H64.4486ZM57.6697 10.0595H54.4931V27.4161H57.6697V10.0595ZM57.8007 3.50983H54.3621V6.8829H57.8007V3.50983ZM44.3412 27.9073C48.9259 27.9073 51.8733 24.305 51.8733 18.7378C51.8733 13.3343 48.7949 9.56826 44.4067 9.56826C42.671 9.56826 40.8371 10.4197 39.6909 11.7296H39.6254V3.50983H36.4488V27.4161H39.3634V25.7459H39.4289C40.5424 27.0231 42.5728 27.9073 44.3412 27.9073ZM43.8499 12.4829C46.961 12.4829 48.6967 14.7425 48.6967 18.7378C48.6967 22.7658 46.961 25.0254 43.8499 25.0254C41.4593 25.0254 39.6254 23.388 39.6254 21.2266V16.5764C39.6254 14.2513 41.4593 12.4829 43.8499 12.4829ZM26.1331 27.9073C30.8816 27.9073 33.9927 24.2722 33.9927 18.7378C33.9927 13.3343 30.7834 9.56826 26.1331 9.56826C21.4174 9.56826 18.1753 13.3343 18.1753 18.7378C18.1753 24.2722 21.3191 27.9073 26.1331 27.9073ZM26.1331 12.4829C29.015 12.4829 30.8489 14.939 30.8489 18.7378C30.8489 22.5693 29.015 25.0254 26.1331 25.0254C23.153 25.0254 21.3191 22.6021 21.3191 18.7378C21.3191 14.8735 23.153 12.4829 26.1331 12.4829ZM16.0467 23.781C16.0467 20.1217 14.9316 17.9492 12.5069 17.0548C14.9925 16.1841 16.7016 14.134 16.7016 11.1402C16.7016 7.07939 13.6888 4.49228 8.97303 4.49228H0V27.4161H3.27483V18.3448H7.95783C11.5601 18.3448 12.8701 19.7857 12.8701 23.781V27.4161H16.0467V23.781ZM8.67829 7.47237C11.7894 7.47237 13.394 8.81505 13.394 11.4677C13.394 14.022 11.7566 15.4302 8.71104 15.4302H3.27483V7.47237H8.67829ZM168.155 28.2431L167.917 28.323C166.377 28.8346 164.101 29.6222 162.058 30.5614C161.948 30.6128 161.876 30.7562 161.876 30.7562C161.838 30.8437 161.791 30.9521 161.737 31.0745L161.729 31.0903C161.579 31.4333 161.39 31.8905 161.241 32.2537L161.241 32.254C161.163 32.4423 161.096 32.6054 161.05 32.7142L160.945 32.9654C160.928 33.0054 160.938 33.0512 160.969 33.0814C160.988 33.0994 161.011 33.1095 161.039 33.1105C161.054 33.1105 161.071 33.1076 161.086 33.0997L161.333 32.9825C161.592 32.8592 161.883 32.7065 162.194 32.5429L162.195 32.5427L162.195 32.5425C162.556 32.3532 162.944 32.1495 163.342 31.9604L163.368 31.9483C164.779 31.2789 166.372 30.5231 167.331 30.0659L167.334 30.0645C167.353 30.053 167.491 29.9719 167.563 29.8288L168.281 28.3885C168.3 28.3509 168.295 28.3054 168.268 28.2733C168.239 28.2418 168.195 28.23 168.155 28.2431ZM162.417 26.0107C162.517 25.8139 162.984 24.9179 163.089 24.7174L163.108 24.6831C166.225 18.8031 170.024 13.2575 174.397 8.19987L174.518 8.06037C174.536 8.03882 174.547 8.01236 174.55 7.98436C174.553 7.95637 174.548 7.92811 174.535 7.90318C174.506 7.85209 174.449 7.82425 174.393 7.83178L174.21 7.85667C171.34 8.25194 168.436 8.7995 165.575 9.48328C165.292 9.56253 165.108 9.74756 165.068 9.79046C162.927 12.3546 160.899 15.0541 159.039 17.8197C158.946 17.9595 158.936 18.2935 158.936 18.2935C158.936 18.2935 159.405 21.8949 160.087 24.5488C158.396 29.4122 156.886 35.8217 156.886 35.8217C156.88 35.8422 156.879 35.8637 156.883 35.8847C156.887 35.9057 156.895 35.9256 156.907 35.9429C156.933 35.9779 156.973 35.9982 157.017 35.9996H157.979C158.04 36.0005 158.094 35.9642 158.115 35.9082L158.181 35.7281C159.163 33.0483 160.284 30.4016 161.522 27.8233C161.81 27.2227 162.417 26.0107 162.417 26.0107ZM175.809 9.25109L175.807 9.0677C175.805 9.01007 175.769 8.95832 175.716 8.939C175.662 8.9187 175.6 8.93409 175.563 8.9783L175.443 9.11715C170.344 15.0141 166.059 21.5595 162.705 28.5709L162.627 28.7347C162.602 28.7864 162.612 28.849 162.651 28.8906C162.677 28.9181 162.712 28.9331 162.75 28.9335C162.767 28.9341 162.788 28.9305 162.805 28.9233L162.973 28.8536C165.837 27.6671 168.762 26.6391 171.668 25.7995C171.842 25.749 171.989 25.6275 172.071 25.4667C173.345 22.9841 176.302 18.1779 176.302 18.1779C176.378 18.0695 176.359 17.9091 176.359 17.9091C176.359 17.9091 175.841 12.1601 175.809 9.25109Z" fill="black"/>
</svg>
