<svg width="141" height="40" viewBox="0 0 141 40" fill="none" xmlns="http://www.w3.org/2000/svg">
<g id="Group 1594">
<path id="Vector" d="M30.4106 7.5756C30.3973 7.49127 30.3561 7.41386 30.2935 7.35573C30.231 7.2976 30.1508 7.26211 30.0657 7.25494C29.9228 7.24314 27.1214 7.20052 27.1214 7.20052C27.1214 7.20052 24.7791 4.9251 24.5477 4.69428C24.3162 4.4628 23.8644 4.53231 23.6886 4.58477C23.6867 4.58608 23.2493 4.72116 22.5122 4.94936C22.3665 4.47205 22.1777 4.00894 21.9483 3.56575C21.1155 1.97426 19.8932 1.13295 18.4178 1.13032H18.4119C18.3096 1.13032 18.2086 1.14016 18.1057 1.14869C18.0624 1.09655 18.0181 1.04538 17.9725 0.995242C17.3299 0.306715 16.505 -0.0277133 15.5175 0.00179508C13.6119 0.0562216 11.7135 1.43262 10.1745 3.87722C9.09119 5.59789 8.26758 7.75921 8.03348 9.43266L4.28199 10.5953C3.17706 10.9422 3.14231 10.9756 2.99805 12.0176C2.89051 12.8045 0 35.1541 0 35.1541L24.2231 39.3443L34.7215 36.7344C34.7215 36.7344 30.4375 7.77429 30.4106 7.5756ZM21.2985 5.3251L19.4191 5.90674C19.4047 4.94215 19.2906 3.59919 18.8407 2.43918C20.2867 2.71328 20.9981 4.34936 21.2985 5.3251ZM18.1516 6.29953L14.1076 7.55199C14.4984 6.05559 15.2394 4.56509 16.1502 3.5887C16.4886 3.22476 16.962 2.82017 17.5234 2.58869C18.0506 3.68903 18.1647 5.24575 18.1516 6.29953ZM15.5548 1.27C16.0027 1.26016 16.3791 1.35852 16.7011 1.57033C16.1857 1.83787 15.6879 2.22213 15.2211 2.72312C14.0106 4.02149 13.0827 6.03789 12.7128 7.98282C11.5587 8.34019 10.4302 8.69036 9.39087 9.01102C10.0466 5.94936 12.6132 1.35524 15.5548 1.27Z" fill="black"/>
<path id="Vector_2" d="M30.0663 7.25626C29.9233 7.2438 27.1227 7.20118 27.1227 7.20118C27.1227 7.20118 24.7804 4.92641 24.5489 4.69559C24.4592 4.61227 24.3452 4.55987 24.2236 4.54608L24.2243 39.343L34.722 36.7344C34.722 36.7344 30.4387 7.77561 30.4112 7.57692C30.3979 7.49252 30.3567 7.41501 30.2942 7.35677C30.2316 7.29853 30.1514 7.26291 30.0663 7.2556V7.25626Z" fill="#060606"/>
<path id="Vector_3" d="M18.4047 12.6537L17.185 17.215C17.185 17.215 15.825 16.5966 14.2132 16.6976C11.8486 16.8478 11.8236 18.3383 11.8479 18.7127C11.9764 20.7527 17.343 21.198 17.6447 25.977C17.8814 29.7364 15.6505 32.3082 12.4361 32.5115C8.57707 32.7541 6.45312 30.4787 6.45312 30.4787L7.27083 27.0013C7.27083 27.0013 9.40855 28.6144 11.12 28.5062C12.2381 28.4354 12.6381 27.5259 12.5974 26.8832C12.4295 24.2222 8.05903 24.379 7.78297 20.0065C7.55018 16.3271 9.96658 12.5979 15.2991 12.2622C17.3535 12.1297 18.4047 12.6537 18.4047 12.6537Z" fill="white"/>
<path id="Vector_4" d="M48.5455 22.2058C47.3389 21.5501 46.7179 20.9986 46.7179 20.2393C46.7179 19.274 47.5796 18.6537 48.9258 18.6537C50.4924 18.6537 51.8911 19.3088 51.8911 19.3088L52.994 15.9284C52.994 15.9284 51.9796 15.135 48.994 15.135C44.8386 15.135 41.9586 17.5147 41.9586 20.8596C41.9586 22.7567 43.3028 24.2052 45.0976 25.2393C46.5461 26.0662 47.0635 26.6531 47.0635 27.5147C47.0635 28.4111 46.3389 29.1357 44.9947 29.1357C42.9907 29.1357 41.0982 28.101 41.0982 28.101L39.9258 31.4806C39.9258 31.4806 41.674 32.6531 44.6156 32.6531C48.8917 32.6531 51.9612 30.5495 51.9612 26.756C51.9599 24.7232 50.4091 23.2747 48.5455 22.2058ZM65.5823 15.1016C63.4787 15.1016 61.8229 16.1016 60.5475 17.6183L60.4787 17.5835L62.3062 8.03135H57.5469L52.9258 32.3436H57.6852L59.2721 24.0327C59.8924 20.8937 61.5134 18.9639 63.0308 18.9639C64.0997 18.9639 64.5141 19.6878 64.5141 20.7226C64.5141 21.3783 64.4452 22.1718 64.3075 22.8262L62.5147 32.3443H67.2741L69.1358 22.516C69.343 21.4806 69.4813 20.2406 69.4813 19.4117C69.4794 16.7212 68.0656 15.1009 65.583 15.1009L65.5823 15.1016ZM80.2381 15.1016C74.5128 15.1016 70.7207 20.274 70.7207 26.0328C70.7207 29.7226 72.9961 32.6879 77.2728 32.6879C82.8939 32.6879 86.6873 27.6537 86.6873 21.7567C86.6873 18.3429 84.6866 15.1009 80.2381 15.1009V15.1016ZM77.8932 29.0341C76.2722 29.0341 75.5823 27.6544 75.5823 25.9298C75.5823 23.2059 76.9968 18.7573 79.583 18.7573C81.2729 18.7573 81.8237 20.2065 81.8237 21.6196C81.8237 24.5508 80.4112 29.0341 77.8932 29.0341ZM98.8605 15.1016C95.648 15.1016 93.8251 17.9291 93.8251 17.9291H93.7569L94.0329 15.3776H89.8257C89.6191 17.1022 89.2388 19.7219 88.8604 21.6878L85.5496 39.1023H90.309L91.6185 32.0675H91.7228C91.7228 32.0675 92.6991 32.6879 94.5162 32.6879C100.102 32.6879 103.758 26.9639 103.758 21.1698C103.758 17.9639 102.343 15.1016 98.8605 15.1016ZM94.3083 29.1016C93.0729 29.1016 92.3418 28.4124 92.3418 28.4124L93.1352 23.9639C93.6874 20.9986 95.2388 19.0327 96.8946 19.0327C98.3431 19.0327 98.791 20.377 98.791 21.6537C98.791 24.7226 96.9634 29.1016 94.3083 29.1016ZM110.551 8.27332C109.034 8.27332 107.827 9.47988 107.827 11.0314C107.827 12.4458 108.723 13.4117 110.068 13.4117H110.137C111.621 13.4117 112.896 12.411 112.931 10.653C112.931 9.27333 112 8.27332 110.551 8.27332ZM103.896 32.3436H108.654L111.897 15.4812H107.102L103.896 32.3436ZM124.001 15.4465H120.69L120.862 14.653C121.138 13.032 122.104 11.5842 123.69 11.5842C124.205 11.5853 124.717 11.6667 125.207 11.8255L126.138 8.10086C126.138 8.10086 125.31 7.68774 123.551 7.68774C121.861 7.68774 120.173 8.17037 118.896 9.27333C117.275 10.653 116.516 12.6524 116.137 14.653L116 15.4465H113.792L113.103 19.0334H115.31L112.793 32.3449H117.552L120.07 19.0334H123.346L124.001 15.4465ZM135.45 15.4819C135.45 15.4819 132.474 22.977 131.139 27.0682H131.069C130.979 25.7501 129.897 15.4812 129.897 15.4812H124.896L127.76 30.9639C127.829 31.3088 127.794 31.5167 127.656 31.7574C127.103 32.8262 126.173 33.8616 125.069 34.6203C124.173 35.2754 123.173 35.6892 122.38 35.9646L123.69 40C124.656 39.7935 126.655 38.9994 128.345 37.4138C130.518 35.379 132.518 32.2407 134.587 27.9646L140.415 15.4799H135.45V15.4819Z" fill="black"/>
</g>
</svg>
