<svg width="134" height="40" viewBox="0 0 134 40" fill="none" xmlns="http://www.w3.org/2000/svg">
<path id="Vector" d="M19.9801 0C8.94563 0 0 8.95446 0 20.0001C0 31.0463 8.94563 40 19.9801 40C31.0158 40 39.9604 31.0463 39.9604 20.0001C39.9604 8.95518 31.0158 0.000955316 19.9799 0.000955316L19.9801 0ZM29.1428 28.8459C29.0576 28.9858 28.9456 29.1074 28.8133 29.2039C28.681 29.3004 28.531 29.3698 28.3719 29.4082C28.2128 29.4465 28.0477 29.4531 27.886 29.4275C27.7243 29.402 27.5693 29.3447 27.4298 29.2591C22.7386 26.3907 16.8331 25.7411 9.87827 27.3317C9.55623 27.405 9.21829 27.3473 8.93872 27.1713C8.65915 26.9953 8.46082 26.7154 8.38733 26.3931C8.35073 26.2335 8.34593 26.0683 8.37322 25.9068C8.4005 25.7454 8.45934 25.5909 8.54634 25.4523C8.63335 25.3136 8.74683 25.1935 8.88028 25.0988C9.01372 25.0041 9.16452 24.9367 9.32403 24.9004C16.935 23.1598 23.4635 23.9093 28.7301 27.1311C29.317 27.4917 29.5031 28.2584 29.1428 28.8459ZM31.5884 23.4001C31.1374 24.1338 30.1783 24.3655 29.4458 23.9141C24.0752 20.6096 15.8885 19.6526 9.53613 21.5828C8.71229 21.8319 7.84216 21.3672 7.59212 20.5439C7.47281 20.1481 7.51516 19.7211 7.7099 19.3566C7.90464 18.992 8.23586 18.7196 8.63093 18.5991C15.8871 16.3952 24.9079 17.4628 31.0754 21.2566C31.8079 21.708 32.0393 22.6679 31.5884 23.4001ZM31.7983 17.7293C25.3588 13.9006 14.7345 13.5486 8.58631 15.4165C7.59904 15.7162 6.55497 15.1583 6.25578 14.17C6.11192 13.6952 6.16232 13.1827 6.39592 12.745C6.62952 12.3074 7.02717 11.9806 7.50145 11.8364C14.5591 9.69173 26.2917 10.1061 33.7056 14.5118C33.9169 14.6369 34.1015 14.8025 34.2487 14.9992C34.396 15.1958 34.503 15.4196 34.5637 15.6577C34.6245 15.8958 34.6377 16.1436 34.6026 16.3868C34.5675 16.6301 34.4849 16.864 34.3593 17.0752C33.8344 17.9641 32.6844 18.2571 31.7993 17.7293H31.7983ZM54.3592 18.463C50.9092 17.6395 50.2961 17.0616 50.2961 15.8471C50.2961 14.6998 51.3745 13.9276 52.9802 13.9276C54.5358 13.9276 56.0771 14.514 57.6947 15.721C57.7424 15.7575 57.8044 15.7721 57.8641 15.7626C57.8941 15.7582 57.9229 15.7478 57.9487 15.732C57.9746 15.7161 57.9969 15.6952 58.0144 15.6704L59.6988 13.2935C59.7321 13.2464 59.7462 13.1884 59.7382 13.1312C59.7302 13.0741 59.7008 13.0221 59.6559 12.9859C57.7305 11.44 55.5641 10.6884 53.0303 10.6884C49.3059 10.6884 46.7029 12.926 46.7029 16.1275C46.7029 19.5607 48.948 20.7763 52.8275 21.7147C56.1272 22.4758 56.6855 23.1135 56.6855 24.2532C56.6855 25.5166 55.5593 26.3024 53.7461 26.3024C51.7324 26.3024 50.0885 25.6217 48.2514 24.0311C48.2056 23.9923 48.1466 23.9727 48.0867 23.9762C48.0247 23.9809 47.9698 24.0096 47.9317 24.055L46.042 26.3048C45.9633 26.4003 45.9728 26.5388 46.0635 26.62C48.2013 28.5307 50.8305 29.5385 53.6697 29.5385C57.6828 29.5385 60.2762 27.3437 60.2762 23.9451C60.2834 21.0775 58.5679 19.4893 54.3664 18.4661L54.3592 18.463ZM69.3569 15.0573C67.6176 15.0573 66.1908 15.7432 65.0122 17.1487V15.5667C65.0124 15.5069 64.989 15.4494 64.9469 15.4069C64.9049 15.3644 64.8477 15.3404 64.7879 15.3401H61.6982C61.5741 15.3401 61.4739 15.4418 61.4739 15.5667V33.1449C61.4739 33.2691 61.5741 33.3717 61.6982 33.3717H64.7879C64.912 33.3717 65.0122 33.2691 65.0122 33.1449V27.5968C66.1908 28.9176 67.6176 29.5648 69.3569 29.5648C72.5898 29.5648 75.8632 27.0738 75.8632 22.3118C75.868 17.5488 72.5945 15.057 69.3593 15.057L69.3569 15.0573ZM72.27 22.3118C72.27 24.7356 70.7789 26.4289 68.6411 26.4289C66.5296 26.4289 64.9358 24.6592 64.9358 22.3118C64.9358 19.9641 66.5296 18.1948 68.6411 18.1948C70.7431 18.1946 72.27 19.9258 72.27 22.3118ZM84.2496 15.0573C80.0862 15.0573 76.8247 18.2662 76.8247 22.3636C76.8247 26.417 80.0647 29.5911 84.1995 29.5911C88.3771 29.5911 91.6482 26.3931 91.6482 22.3118C91.6482 18.2442 88.3986 15.0578 84.2496 15.0578V15.0573ZM84.2496 26.4528C82.0355 26.4528 80.3653 24.6712 80.3653 22.3106C80.3653 19.9392 81.9782 18.2184 84.1995 18.2184C86.4279 18.2184 88.1075 19.9994 88.1075 22.3624C88.1075 24.7333 86.4851 26.4528 84.2496 26.4528ZM100.538 15.3401H97.1381V11.8613C97.1382 11.8317 97.1325 11.8023 97.1213 11.7749C97.1101 11.7475 97.0936 11.7226 97.0728 11.7016C97.052 11.6805 97.0272 11.6638 96.9999 11.6524C96.9727 11.6409 96.9434 11.635 96.9138 11.6349H93.8241C93.7 11.6349 93.5974 11.7366 93.5974 11.8613V15.3401H92.1134C91.9894 15.3401 91.8892 15.4418 91.8892 15.5667V18.2242C91.8892 18.3488 91.9894 18.4508 92.1134 18.4508H93.5974V25.3279C93.5974 28.1055 94.9789 29.5146 97.7059 29.5146C98.813 29.5146 99.7316 29.2854 100.598 28.7934C100.669 28.7552 100.712 28.6787 100.712 28.5975V26.0659C100.712 25.9895 100.672 25.9155 100.605 25.8749C100.572 25.8541 100.535 25.8422 100.496 25.8405C100.458 25.8389 100.419 25.8474 100.385 25.8653C99.7912 26.1639 99.2162 26.3024 98.572 26.3024C97.5819 26.3024 97.1381 25.851 97.1381 24.8431V18.452H100.538C100.662 18.452 100.762 18.3503 100.762 18.2254V15.5681C100.763 15.5385 100.758 15.5089 100.747 15.4813C100.737 15.4536 100.721 15.4285 100.7 15.4073C100.679 15.3861 100.654 15.3693 100.627 15.358C100.599 15.3467 100.57 15.3411 100.54 15.3415L100.538 15.3401ZM112.381 15.3537V14.9264C112.381 13.6694 112.863 13.1089 113.942 13.1089C114.586 13.1089 115.104 13.2369 115.684 13.4304C115.755 13.4528 115.829 13.4416 115.886 13.3989C115.915 13.3779 115.939 13.3502 115.955 13.3182C115.971 13.2862 115.98 13.2508 115.979 13.215V10.6093C115.98 10.5607 115.965 10.5131 115.936 10.474C115.907 10.4348 115.866 10.4061 115.82 10.3922C115.209 10.21 114.426 10.023 113.252 10.023C110.401 10.023 108.891 11.6313 108.891 14.6723V15.3267H107.407C107.283 15.3267 107.18 15.4284 107.18 15.5531V18.2242C107.18 18.3488 107.283 18.4508 107.407 18.4508H108.891V29.0561C108.891 29.1827 108.994 29.283 109.118 29.283H112.205C112.331 29.283 112.432 29.1827 112.432 29.0561V18.4515H115.316L119.735 29.0561C119.234 30.169 118.74 30.3911 118.067 30.3911C117.523 30.3911 116.948 30.2287 116.364 29.9063C116.308 29.8783 116.244 29.8724 116.185 29.8896C116.125 29.9111 116.075 29.9541 116.051 30.0114L115.004 32.3113C114.953 32.4212 114.996 32.5478 115.101 32.6051C116.194 33.1974 117.18 33.4506 118.399 33.4506C120.68 33.4506 121.942 32.3854 123.051 29.5242L128.41 15.6632C128.424 15.6289 128.429 15.5917 128.425 15.5549C128.421 15.5182 128.407 15.4831 128.386 15.4528C128.366 15.4225 128.339 15.3977 128.306 15.3805C128.274 15.3633 128.239 15.3544 128.202 15.3544H124.986C124.888 15.3544 124.802 15.4158 124.771 15.5063L121.476 24.9243L117.869 15.5001C117.853 15.4574 117.824 15.4206 117.787 15.3946C117.749 15.3685 117.705 15.3545 117.659 15.3544H112.381V15.3537ZM105.515 15.3401H102.425C102.301 15.3401 102.199 15.4418 102.199 15.5667V29.0561C102.199 29.1827 102.301 29.283 102.425 29.283H105.515C105.639 29.283 105.742 29.1827 105.742 29.0561V15.5677C105.742 15.5379 105.736 15.5083 105.724 15.4808C105.713 15.4533 105.696 15.4282 105.675 15.4072C105.654 15.3861 105.629 15.3694 105.602 15.3581C105.574 15.3467 105.545 15.3409 105.515 15.341V15.3401ZM103.988 9.19759C102.764 9.19759 101.771 10.1892 101.771 11.4142C101.771 12.6398 102.764 13.6327 103.988 13.6327C105.212 13.6327 106.202 12.6398 106.202 11.4142C106.202 10.1895 105.21 9.19759 103.988 9.19759ZM131.049 19.6775C129.827 19.6775 128.875 18.6947 128.875 17.5012C128.875 16.3078 129.839 15.3138 131.061 15.3138C132.282 15.3138 133.234 16.2963 133.234 17.4888C133.234 18.6823 132.27 19.6775 131.049 19.6775ZM131.061 15.5302C129.946 15.5302 129.104 16.4162 129.104 17.5012C129.104 18.5858 129.942 19.4599 131.049 19.4599C132.163 19.4599 133.005 18.5745 133.005 17.4888C133.005 16.4043 132.168 15.5302 131.061 15.5302ZM131.543 17.7126L132.158 18.5743H131.638L131.084 17.7838H130.61V18.5743H130.175V16.2901H131.192C131.724 16.2901 132.072 16.5617 132.072 17.0188C132.075 17.3933 131.857 17.6221 131.545 17.7126H131.543ZM131.175 16.6821H130.61V17.4045H131.175C131.457 17.4045 131.626 17.2662 131.626 17.0429C131.626 16.8079 131.457 16.6821 131.175 16.6821Z" fill="black"/>
</svg>
