<?xml version="1.0" encoding="UTF-8"?>
<svg xmlns="http://www.w3.org/2000/svg" xmlns:xlink="http://www.w3.org/1999/xlink" width="666px" height="375px" viewBox="0 0 666 375" version="1.1">
<g id="surface1">
<path style=" stroke:none;fill-rule:nonzero;fill:rgb(100%,100%,100%);fill-opacity:1;" d="M 618.289062 76.410156 L 378.542969 6.28125 C 350.046875 -2.09375 314.527344 -2.09375 286.03125 6.28125 L 46.234375 76.410156 C 17.390625 84.980469 -0.171875 100.398438 0 116.996094 L 0 257.230469 C -0.15625 273.820312 17.402344 289.226562 46.234375 297.792969 L 285.984375 367.898438 C 314.480469 376.269531 349.996094 376.269531 378.492188 367.898438 L 618.242188 297.792969 C 647.105469 289.226562 664.6875 273.808594 664.523438 257.207031 L 664.523438 116.996094 C 664.695312 100.398438 647.132812 84.980469 618.289062 76.410156 Z M 618.289062 76.410156 "/>
<path style=" stroke:none;fill-rule:nonzero;fill:rgb(18.431373%,22.745098%,24.313725%);fill-opacity:1;" d="M 619.652344 76.578125 L 379.375 6.292969 C 350.816406 -2.097656 315.21875 -2.097656 286.660156 6.292969 L 46.335938 76.578125 C 17.425781 85.167969 -0.171875 100.621094 0 117.253906 L 0 257.796875 C -0.15625 274.421875 17.441406 289.863281 46.335938 298.449219 L 286.613281 368.710938 C 315.171875 377.097656 350.765625 377.097656 379.328125 368.710938 L 619.605469 298.449219 C 648.53125 289.863281 666.148438 274.410156 665.988281 257.773438 L 665.988281 117.253906 C 666.160156 100.621094 648.558594 85.167969 619.652344 76.578125 Z M 295.03125 361.527344 L 54.753906 291.269531 C 31.011719 284.179688 16.546875 271.476562 16.648438 257.796875 L 16.648438 117.253906 C 16.539062 103.574219 31.003906 90.867188 54.753906 83.785156 L 295.03125 13.5 C 318.417969 6.625 347.570312 6.625 370.957031 13.5 L 611.039062 83.785156 C 630.832031 89.6875 644.332031 99.59375 647.941406 110.855469 C 639.957031 102.484375 622.007812 100.1875 601.082031 106.113281 L 373.9375 175.425781 C 345.597656 183.554688 324.71875 192.730469 324.671875 209.558594 L 324.671875 347.566406 C 324.671875 357.640625 332.898438 364.160156 345.597656 366.078125 C 341.441406 366.453125 337.222656 366.652344 332.992188 366.671875 C 319.632812 366.667969 306.519531 364.890625 295.03125 361.527344 Z M 295.03125 361.527344 "/>
<path style=" stroke:none;fill-rule:nonzero;fill:rgb(22.745098%,69.411765%,29.019608%);fill-opacity:1;" d="M 556.011719 271.082031 L 496.292969 288.679688 C 494.691406 288.996094 493.621094 289.75 493.554688 290.597656 L 493.554688 298.332031 C 493.554688 299.277344 494.851562 299.65625 496.4375 299.207031 L 557.070312 281.042969 C 558.554688 280.492188 559.265625 279.570312 558.894531 278.675781 L 558.894531 271.886719 C 558.84375 271.011719 557.453125 270.632812 556.011719 271.082031 Z M 556.011719 271.082031 "/>
<path style=" stroke:none;fill-rule:nonzero;fill:rgb(100%,100%,100%);fill-opacity:1;" d="M 428.925781 206.296875 C 430.84375 205.824219 432.429688 206.296875 432.476562 207.644531 L 432.667969 217.910156 C 439.851562 216.300781 447.863281 215.824219 455.617188 216.539062 C 457.105469 216.726562 457.730469 217.722656 457.152344 218.902344 L 452.59375 227.914062 C 452.246094 228.59375 451.53125 229.214844 450.527344 229.710938 C 450.175781 229.882812 449.769531 230.027344 449.328125 230.136719 C 448.785156 230.28125 448.160156 230.332031 447.550781 230.28125 C 439.992188 229.457031 432.078125 230.082031 425.421875 232.03125 C 415.6875 234.191406 409.324219 238.90625 409.050781 244.164062 C 409.050781 248.894531 413.851562 250.195312 430.605469 250.335938 C 452.738281 250.527344 462.335938 255.28125 462.578125 266.277344 C 462.050781 277.757812 451.308594 288.542969 433.199219 295.773438 L 433.582031 305.847656 C 433.546875 307.101562 432.226562 308.257812 430.078125 308.925781 L 417.980469 312.355469 C 416.058594 312.828125 414.472656 312.355469 414.425781 311.027344 L 414.425781 301.117188 C 404.058594 303.246094 393.542969 303.746094 386.820312 302.417969 C 385.574219 302.183594 384.996094 301.261719 385.527344 300.195312 L 389.894531 291.089844 C 390.226562 290.371094 390.976562 289.710938 392.054688 289.199219 C 392.398438 289.035156 392.785156 288.902344 393.207031 288.796875 C 393.832031 288.65625 394.550781 288.65625 395.175781 288.796875 C 403.734375 289.9375 412.863281 289.371094 420.570312 287.210938 C 431.695312 284.566406 438.925781 279.101562 439.34375 273.019531 C 439.34375 267.910156 433.628906 265.78125 420.140625 265.734375 C 402.710938 265.734375 386.535156 264.078125 386.199219 251.542969 C 386.597656 240.59375 396.917969 230.300781 414.332031 223.492188 L 413.464844 213.179688 C 413.457031 211.910156 414.785156 210.730469 416.972656 210.058594 Z M 428.925781 206.296875 "/>
</g>
</svg>
