<?xml version="1.0" encoding="UTF-8"?>
<svg xmlns="http://www.w3.org/2000/svg" xmlns:xlink="http://www.w3.org/1999/xlink" width="666px" height="375px" viewBox="0 0 666 375" version="1.1">
<g id="surface1">
<path style=" stroke:none;fill-rule:evenodd;fill:rgb(47.45098%,32.156863%,70.196078%);fill-opacity:1;" d="M 138.332031 0.0429688 C 100.328125 0.0429688 72.210938 23.550781 73.46875 49.039062 C 74.679688 73.527344 73.109375 105.242188 61.808594 131.109375 C 50.46875 157.046875 31.308594 173.480469 0 175.589844 L 0 199.410156 C 31.308594 201.523438 50.46875 217.953125 61.808594 243.890625 C 73.109375 269.757812 74.675781 301.472656 73.46875 325.960938 C 72.207031 351.449219 100.328125 374.957031 138.335938 374.957031 L 527.71875 374.957031 C 565.722656 374.957031 593.835938 351.449219 592.574219 325.960938 C 591.367188 301.472656 592.9375 269.757812 604.234375 243.890625 C 615.574219 217.953125 634.691406 201.515625 666 199.410156 L 666 175.589844 C 634.691406 173.476562 615.578125 157.046875 604.234375 131.109375 C 592.9375 105.246094 591.367188 73.527344 592.574219 49.039062 C 593.835938 23.550781 565.722656 0.0429688 527.71875 0.0429688 L 138.324219 0.0429688 Z M 451.527344 230.828125 C 451.527344 265.925781 414.476562 287.210938 352.996094 287.210938 L 248.339844 287.210938 C 242.105469 287.210938 237.050781 283.640625 237.050781 279.234375 L 237.050781 95.765625 C 237.050781 91.363281 242.105469 87.789062 248.339844 87.789062 L 352.402344 87.789062 C 403.667969 87.789062 437.3125 107.414062 437.3125 137.542969 C 437.3125 158.6875 414.675781 177.617188 385.84375 180.933594 L 385.84375 182.039062 C 425.09375 185.082031 451.527344 204.292969 451.527344 230.828125 Z M 341.585938 113.078125 L 281.910156 113.078125 L 281.910156 172.640625 L 332.171875 172.640625 C 371.027344 172.640625 392.449219 161.585938 392.449219 141.824219 C 392.445312 123.304688 374.027344 113.078125 341.585938 113.078125 Z M 281.910156 196.273438 L 281.910156 261.914062 L 343.78125 261.914062 C 384.234375 261.914062 405.664062 250.445312 405.664062 228.886719 C 405.664062 207.332031 383.632812 196.269531 341.179688 196.269531 L 281.910156 196.269531 Z M 281.910156 196.273438 "/>
</g>
</svg>
