<?xml version="1.0" encoding="UTF-8"?>
<svg xmlns="http://www.w3.org/2000/svg" xmlns:xlink="http://www.w3.org/1999/xlink" width="666px" height="375px" viewBox="0 0 666 375" version="1.1">
<g id="surface1">
<path style=" stroke:none;fill-rule:nonzero;fill:rgb(94.117647%,31.372549%,19.607843%);fill-opacity:1;" d="M 653.410156 170.777344 L 362.617188 7.054688 C 345.863281 -2.367188 318.722656 -2.367188 301.90625 7.054688 L 241.652344 41.039062 L 318.242188 84.164062 C 336.144531 80.800781 356.519531 83.074219 370.671875 91.054688 C 384.988281 99.105469 388.921875 110.707031 382.824219 120.738281 L 456.585938 162.304688 C 474.484375 158.824219 495.066406 161.085938 509.300781 169.101562 C 529.304688 180.351562 529.304688 198.539062 509.300781 209.789062 C 489.34375 221.027344 457.105469 221.027344 437.144531 209.789062 C 422.179688 201.339844 418.433594 188.894531 425.929688 178.605469 L 356.851562 139.921875 L 356.851562 241.875 C 361.742188 243.222656 366.339844 245.050781 370.398438 247.3125 C 390.191406 258.574219 390.191406 276.738281 370.398438 287.941406 C 350.441406 299.203125 317.972656 299.203125 297.992188 287.941406 C 278.035156 276.703125 278.035156 258.585938 297.992188 247.347656 C 303.050781 244.535156 308.734375 242.414062 314.789062 241.007812 L 314.789062 138.058594 C 308.773438 136.640625 303.03125 134.589844 298.140625 131.789062 C 283.007812 123.269531 279.386719 110.824219 287.148438 100.394531 L 211.890625 57.820312 L 12.488281 170.027344 C -4.164062 179.484375 -4.164062 194.777344 12.488281 204.234375 L 303.300781 367.933594 C 320.054688 377.367188 347.195312 377.367188 363.96875 367.933594 L 653.410156 204.960938 C 670.203125 195.539062 670.203125 180.246094 653.410156 170.789062 Z M 653.410156 170.777344 "/>
</g>
</svg>
