<?xml version="1.0" encoding="UTF-8"?>
<svg xmlns="http://www.w3.org/2000/svg" xmlns:xlink="http://www.w3.org/1999/xlink" width="666px" height="375px" viewBox="0 0 666 375" version="1.1">
<g id="surface1">
<path style=" stroke:none;fill-rule:nonzero;fill:rgb(0%,0%,0%);fill-opacity:1;" d="M 333 4.640625 C 149.015625 4.640625 0 88.59375 0 192.140625 C 0 275.003906 95.40625 345.269531 227.6875 370.03125 C 244.339844 371.800781 250.4375 366 250.4375 361.019531 C 250.4375 356.566406 250.167969 344.765625 250.019531 329.144531 C 157.382812 340.453125 137.863281 303.984375 137.863281 303.984375 C 122.710938 282.339844 100.816406 276.5625 100.816406 276.5625 C 70.660156 264.9375 103.148438 265.171875 103.148438 265.171875 C 136.59375 266.484375 154.15625 284.484375 154.15625 284.484375 C 183.859375 313.160156 232.101562 304.875 251.144531 300.082031 C 254.140625 287.953125 262.714844 279.691406 272.226562 275.003906 C 198.28125 270.316406 120.546875 254.191406 120.546875 182.34375 C 120.546875 161.871094 133.449219 145.160156 154.824219 132.035156 C 151.078125 127.300781 139.839844 108.234375 157.738281 82.40625 C 157.738281 82.40625 185.625 77.378906 249.3125 101.625 C 275.953125 97.453125 304.257812 95.390625 332.5625 95.296875 C 360.867188 95.390625 389.171875 97.453125 415.8125 101.625 C 479.082031 77.378906 506.972656 82.40625 506.972656 82.40625 C 524.871094 108.234375 513.632812 127.300781 510.300781 132.035156 C 531.53125 145.160156 544.433594 161.882812 544.433594 182.34375 C 544.433594 254.378906 466.59375 270.234375 392.503906 274.839844 C 404.15625 280.464844 414.980469 291.960938 414.980469 309.527344 C 414.980469 334.617188 414.5625 354.773438 414.5625 360.867188 C 414.5625 365.789062 420.390625 371.648438 437.457031 369.773438 C 570.679688 345.175781 666 274.863281 666 192.128906 C 666 88.582031 516.898438 4.628906 333 4.628906 Z M 333 4.640625 "/>
</g>
</svg>
