<?xml version="1.0" encoding="UTF-8"?>
<svg xmlns="http://www.w3.org/2000/svg" xmlns:xlink="http://www.w3.org/1999/xlink" width="666px" height="375px" viewBox="0 0 666 375" version="1.1">
<g id="surface1">
<path style=" stroke:none;fill-rule:nonzero;fill:rgb(96.862745%,87.45098%,11.764706%);fill-opacity:1;" d="M 0 0 L 666 0 L 666 375 L 0 375 Z M 611.449219 285.5625 C 606.601562 268.453125 586.808594 254.074219 528.117188 240.667969 C 507.699219 235.277344 484.992188 231.527344 478.25 222.855469 C 475.730469 217.699219 475.335938 214.886719 476.980469 211.839844 C 481.144531 201.75 502.371094 198.714844 519.023438 201.527344 C 529.84375 203.402344 539.835938 208.089844 546.097656 215.589844 C 574.800781 205.03125 574.800781 205.03125 594.800781 198.011719 C 587.308594 191.449219 583.582031 188.625 578.546875 185.824219 C 561.0625 174.808594 537.773438 169.183594 499.894531 169.664062 L 480.332031 171.058594 C 461.578125 173.636719 443.703125 179.261719 432.878906 186.761719 C 401.246094 206.929688 410.382812 242.085938 448.675781 256.617188 C 486.554688 272.554688 541.9375 276.058594 549.011719 291.070312 C 555.671875 309.351562 524.871094 315.210938 494.464844 313.101562 C 471.964844 310.289062 459.5 303.949219 445.761719 292.230469 L 394.980469 308.648438 C 400.808594 316.148438 407.46875 319.417969 417.457031 325.980469 C 465.742188 353.414062 586.453125 352.007812 608.121094 310.289062 C 608.933594 308.882812 614.78125 299.273438 610.179688 284.507812 Z M 362.160156 172.359375 L 299.785156 172.359375 C 299.785156 202.640625 299.535156 232.734375 299.535156 263.0625 C 299.535156 282.316406 301.28125 299.988281 295.703125 305.425781 C 286.546875 316.195312 262.964844 314.8125 252.246094 312.925781 C 241.257812 309.867188 235.679688 305.648438 229.207031 299.566406 C 227.460938 297.925781 226.148438 296.507812 225.691406 296.507812 L 175.054688 314.085938 C 183.523438 323.929688 195.867188 332.402344 211.789062 337.792969 C 235.515625 345.761719 267.398438 348.339844 300.78125 344.121094 C 322.511719 340.59375 341.242188 333.328125 351.042969 322.078125 C 365.195312 307.546875 362.199219 289.734375 362.054688 269.800781 C 362.386719 237.703125 362.054688 205.59375 362.054688 173.25 Z M 362.160156 172.359375 "/>
</g>
</svg>
