<?xml version="1.0" encoding="UTF-8"?>
<svg xmlns="http://www.w3.org/2000/svg" xmlns:xlink="http://www.w3.org/1999/xlink" width="666px" height="375px" viewBox="0 0 666 375" version="1.1">
<g id="surface1">
<path style=" stroke:none;fill-rule:nonzero;fill:rgb(27.843137%,63.529412%,28.235294%);fill-opacity:1;" d="M 476.75 148.722656 C 441.703125 61.851562 359.035156 33.304688 350.148438 22.382812 C 340.386719 14.683594 329.816406 0.0117188 329.816406 0.0117188 C 329.753906 0.304688 329.710938 0.492188 329.671875 0.773438 L 329.671875 0.972656 L 329.648438 0.972656 C 329.585938 1.207031 329.566406 1.359375 329.546875 1.582031 L 329.546875 1.816406 L 329.484375 1.816406 C 329.484375 1.96875 329.421875 2.097656 329.421875 2.226562 L 329.421875 2.636719 L 329.335938 2.636719 C 329.316406 2.765625 329.316406 2.917969 329.253906 3.023438 L 329.253906 3.351562 L 329.191406 3.351562 C 329.191406 3.457031 329.191406 3.585938 329.128906 3.679688 L 329.128906 3.996094 L 329.066406 3.996094 C 329.066406 4.148438 329.046875 4.335938 329.003906 4.5 L 329.003906 4.535156 C 328.921875 4.804688 328.835938 5.0625 328.753906 5.320312 L 328.753906 5.449219 L 328.691406 5.449219 C 328.671875 5.507812 328.609375 5.578125 328.609375 5.636719 L 328.609375 5.90625 L 328.523438 5.90625 L 328.523438 6.246094 L 328.378906 6.246094 L 328.378906 6.527344 L 328.234375 6.527344 L 328.234375 6.855469 L 328.128906 6.855469 L 328.128906 7.148438 L 328.027344 7.148438 L 328.027344 7.417969 L 327.859375 7.417969 L 327.859375 7.640625 L 327.753906 7.640625 L 327.753906 7.921875 L 327.652344 7.921875 L 327.652344 8.144531 L 327.503906 8.144531 L 327.503906 8.34375 L 327.421875 8.34375 L 327.421875 8.578125 L 327.316406 8.578125 C 327.296875 8.589844 327.296875 8.625 327.296875 8.636719 L 327.296875 8.789062 L 327.214844 8.789062 C 327.191406 8.824219 327.191406 8.847656 327.191406 8.882812 L 327.191406 8.976562 L 327.132812 8.976562 C 327.109375 9.023438 327.070312 9.105469 327.070312 9.128906 C 326.984375 9.234375 326.882812 9.351562 326.796875 9.457031 L 326.796875 9.492188 C 326.734375 9.527344 326.695312 9.574219 326.652344 9.597656 L 326.652344 9.726562 L 326.546875 9.726562 L 326.546875 9.855469 L 326.402344 9.855469 L 326.402344 9.984375 L 326.320312 9.984375 L 326.320312 10.136719 L 326.152344 10.136719 L 326.152344 10.359375 L 326.046875 10.359375 L 326.046875 10.417969 L 325.945312 10.417969 L 325.945312 10.546875 L 325.839844 10.546875 L 325.839844 10.722656 L 325.738281 10.722656 L 325.738281 10.851562 L 325.570312 10.851562 L 325.570312 11.027344 L 325.464844 11.027344 L 325.464844 11.15625 L 325.320312 11.15625 L 325.320312 11.285156 L 325.238281 11.285156 L 325.238281 11.4375 L 325.089844 11.4375 L 325.089844 11.566406 L 324.988281 11.566406 L 324.988281 11.660156 L 324.882812 11.660156 L 324.882812 11.789062 L 324.714844 11.789062 L 324.714844 11.929688 L 324.613281 11.929688 L 324.613281 12.023438 L 324.46875 12.023438 L 324.46875 12.152344 L 324.363281 12.152344 L 324.363281 12.328125 L 324.21875 12.328125 L 324.21875 12.386719 L 324.132812 12.386719 L 324.132812 12.515625 L 323.96875 12.515625 L 323.96875 12.574219 L 323.863281 12.574219 L 323.863281 12.726562 L 323.757812 12.726562 L 323.757812 12.785156 L 323.65625 12.785156 L 323.65625 12.914062 L 323.507812 12.914062 L 323.507812 13.007812 L 323.425781 13.007812 L 323.363281 13.066406 L 323.363281 13.125 L 323.300781 13.125 C 323.28125 13.160156 323.238281 13.160156 323.238281 13.183594 L 323.238281 13.195312 L 323.21875 13.195312 C 323.199219 13.242188 323.15625 13.277344 323.113281 13.300781 L 323.113281 13.347656 L 323.09375 13.347656 C 322.949219 13.441406 322.863281 13.535156 322.761719 13.628906 L 322.761719 13.640625 C 322.699219 13.675781 322.574219 13.734375 322.511719 13.792969 L 322.511719 13.828125 L 322.488281 13.828125 C 322.46875 13.839844 322.40625 13.863281 322.40625 13.875 L 322.40625 13.921875 L 322.34375 13.921875 L 322.261719 13.96875 L 322.261719 13.980469 L 322.238281 13.980469 C 322.238281 13.992188 322.175781 14.015625 322.15625 14.039062 L 322.15625 14.097656 L 322.074219 14.097656 L 322.011719 14.132812 L 322.011719 14.167969 L 321.949219 14.167969 C 321.949219 14.203125 321.886719 14.203125 321.886719 14.214844 L 321.886719 14.261719 L 321.78125 14.261719 C 321.78125 14.273438 321.761719 14.296875 321.71875 14.308594 L 321.71875 14.402344 L 321.636719 14.402344 L 321.636719 14.460938 L 321.53125 14.460938 L 321.53125 14.554688 L 321.429688 14.554688 L 321.429688 14.683594 L 321.28125 14.683594 L 321.28125 14.554688 L 321.136719 14.554688 L 321.136719 14.613281 L 321.03125 14.613281 L 321.03125 14.707031 L 320.886719 14.707031 L 320.886719 14.835938 L 320.742188 14.835938 L 320.742188 14.894531 L 320.636719 14.894531 L 320.636719 14.988281 L 320.535156 14.988281 L 320.535156 15.046875 L 320.429688 15.046875 L 320.429688 15.175781 L 320.261719 15.175781 L 320.261719 15.234375 L 320.160156 15.234375 L 320.160156 15.328125 L 320.011719 15.328125 L 320.011719 15.386719 L 319.910156 15.386719 L 319.910156 15.46875 L 319.761719 15.46875 L 319.761719 15.621094 L 319.699219 15.621094 L 319.699219 15.679688 L 319.535156 15.679688 L 319.535156 15.761719 L 319.429688 15.761719 L 319.429688 15.796875 L 319.328125 15.796875 L 319.328125 15.855469 L 319.179688 15.855469 L 319.179688 16.007812 L 319.078125 16.007812 L 319.078125 16.066406 L 318.929688 16.066406 L 318.929688 16.125 L 318.828125 16.125 L 318.828125 16.21875 L 318.679688 16.21875 L 318.679688 16.277344 L 318.535156 16.277344 L 318.535156 16.335938 L 318.429688 16.335938 L 318.429688 16.394531 L 318.328125 16.394531 L 318.328125 16.546875 L 318.222656 16.546875 L 318.222656 16.628906 L 318.054688 16.628906 L 318.054688 16.6875 L 317.953125 16.6875 L 317.953125 16.746094 L 317.808594 16.746094 L 317.808594 16.839844 L 317.703125 16.839844 L 317.703125 16.898438 L 317.558594 16.898438 L 317.558594 17.003906 L 317.453125 17.003906 L 317.453125 17.0625 L 317.285156 17.0625 L 317.285156 17.15625 L 317.222656 17.15625 L 317.222656 17.214844 L 317.121094 17.214844 L 317.121094 17.273438 L 316.972656 17.273438 L 316.972656 17.332031 L 316.871094 17.332031 L 316.871094 17.425781 L 316.726562 17.425781 L 316.726562 17.484375 L 316.640625 17.484375 C 316.621094 17.496094 316.621094 17.519531 316.621094 17.519531 L 316.621094 17.554688 L 316.558594 17.554688 L 316.453125 17.613281 C 316.453125 17.613281 316.390625 17.648438 316.351562 17.660156 L 316.351562 17.753906 L 316.246094 17.753906 L 316.246094 17.835938 L 316.140625 17.835938 L 316.140625 17.894531 L 316.039062 17.894531 L 316.039062 17.953125 L 315.953125 17.953125 L 315.871094 18 L 315.871094 18.046875 L 315.808594 18.046875 L 315.746094 18.082031 L 315.746094 18.128906 L 315.683594 18.128906 C 315.539062 18.222656 315.496094 18.28125 315.289062 18.375 C 315.226562 18.410156 315.058594 18.480469 314.957031 18.527344 C 314.621094 18.65625 314.207031 18.855469 313.875 19.03125 C 313.644531 19.113281 313.4375 19.21875 313.269531 19.300781 L 313.269531 19.3125 L 313.25 19.3125 C 312.8125 19.511719 312.394531 19.699219 311.894531 19.921875 L 311.894531 19.933594 C 311.230469 20.25 310.585938 20.542969 309.835938 20.90625 L 309.835938 20.894531 L 309.773438 20.894531 C 308.191406 21.632812 306.527344 22.453125 304.613281 23.378906 L 304.613281 23.390625 L 304.589844 23.390625 C 299.90625 25.699219 294.332031 28.675781 288.085938 32.261719 L 287.566406 32.554688 C 249.832031 54.539062 190.351562 100.347656 184.085938 174.386719 C 183.523438 180.515625 183.648438 186.46875 184.253906 192.257812 L 184.253906 192.398438 C 187.269531 221.566406 203.546875 246.480469 223.878906 266.707031 L 223.878906 266.71875 C 231.976562 274.78125 240.71875 282.105469 249.582031 288.667969 L 249.582031 288.679688 C 280.15625 311.414062 311.375 324.878906 319.347656 328.148438 C 331.585938 344.132812 330.441406 371.566406 330.441406 371.566406 L 348.316406 374.929688 C 348.316406 374.929688 344.675781 348.351562 349.796875 335.519531 C 351.378906 331.5 355.125 328.078125 359.472656 325.171875 C 362.40625 324 371.128906 320.472656 381.597656 315.09375 C 382.097656 314.800781 382.367188 314.53125 382.824219 314.25 C 425.03125 292.089844 503.871094 237.527344 476.835938 148.640625 Z M 476.75 148.722656 "/>
</g>
</svg>
