<?xml version="1.0" encoding="UTF-8"?>
<svg xmlns="http://www.w3.org/2000/svg" xmlns:xlink="http://www.w3.org/1999/xlink" width="666px" height="375px" viewBox="0 0 666 375" version="1.1">
<g id="surface1">
<path style=" stroke:none;fill-rule:nonzero;fill:rgb(32.54902%,61.960784%,26.27451%);fill-opacity:1;" d="M 328.894531 331.054688 C 326.703125 331.054688 324.523438 330.617188 322.542969 329.882812 L 302.585938 321.53125 C 299.566406 320.363281 301.023438 319.925781 302.066406 319.703125 C 306.019531 318.746094 306.847656 318.53125 311.105469 316.773438 C 311.523438 316.628906 312.148438 316.699219 312.566406 316.84375 L 327.957031 323.292969 C 328.476562 323.507812 329.304688 323.507812 329.824219 323.292969 L 389.929688 298.828125 C 390.449219 298.605469 390.867188 298.167969 390.867188 297.65625 L 390.867188 248.800781 C 390.867188 248.289062 390.550781 247.851562 389.929688 247.628906 L 329.824219 223.246094 C 329.304688 223.023438 328.578125 223.023438 327.957031 223.246094 L 267.851562 247.628906 C 267.230469 247.851562 266.914062 248.363281 266.914062 248.800781 L 266.914062 297.65625 C 266.914062 298.09375 267.332031 298.535156 267.851562 298.757812 L 284.285156 305.421875 C 293.226562 308.570312 298.742188 304.832031 298.742188 301.167969 L 298.742188 252.90625 C 298.742188 252.246094 299.464844 251.660156 300.503906 251.660156 L 308.101562 251.660156 C 309.027344 251.660156 309.863281 252.175781 309.863281 252.90625 L 309.863281 301.167969 C 309.863281 309.59375 303.421875 314.351562 292.085938 314.351562 C 288.648438 314.351562 285.84375 314.351562 278.25 311.71875 L 262.449219 305.347656 C 258.597656 303.734375 256.109375 300.804688 256.109375 297.65625 L 256.109375 248.800781 C 256.109375 245.65625 258.496094 242.652344 262.449219 241.109375 L 322.542969 216.652344 C 326.398438 215.109375 331.382812 215.109375 335.132812 216.652344 L 395.230469 241.109375 C 399.082031 242.726562 401.570312 245.65625 401.570312 248.800781 L 401.570312 297.65625 C 401.570312 300.804688 399.183594 303.8125 395.230469 305.347656 L 335.132812 329.8125 C 333.359375 330.617188 331.179688 331.054688 328.894531 331.054688 Z M 377.449219 282.859375 C 377.449219 273.703125 368.714844 271.289062 350.210938 269.53125 C 331.496094 267.773438 329.621094 266.894531 329.621094 263.816406 C 329.621094 261.253906 331.179688 257.882812 345.011719 257.882812 C 357.378906 257.882812 361.957031 259.789062 363.832031 265.648438 C 364.035156 266.234375 364.65625 266.601562 365.492188 266.601562 L 373.292969 266.601562 C 373.8125 266.601562 374.230469 266.457031 374.535156 266.234375 C 374.851562 265.941406 375.054688 265.648438 374.953125 265.28125 C 373.710938 255.175781 364.25 250.488281 345.011719 250.488281 C 327.855469 250.488281 317.660156 255.617188 317.660156 264.109375 C 317.660156 273.414062 327.855469 275.902344 344.277344 277.078125 C 363.933594 278.464844 365.492188 280.445312 365.492188 283.152344 C 365.492188 287.914062 360.089844 289.894531 347.398438 289.894531 C 331.496094 289.894531 327.957031 287.109375 326.816406 281.542969 C 326.703125 280.957031 325.980469 280.515625 325.042969 280.515625 L 317.242188 280.515625 C 316.304688 280.515625 315.480469 281.027344 315.480469 281.761719 C 315.480469 288.867188 320.984375 297.363281 347.296875 297.363281 C 366.53125 297.363281 377.449219 292.09375 377.449219 282.859375 Z M 434.121094 246.164062 C 434.121094 250.632812 428.921875 254.292969 422.582031 254.292969 C 416.238281 254.292969 411.039062 250.632812 411.039062 246.164062 C 411.039062 241.554688 416.445312 238.039062 422.582031 238.039062 C 428.820312 237.964844 434.121094 241.554688 434.121094 246.164062 Z M 432.246094 246.164062 C 432.246094 242.359375 427.882812 239.359375 422.480469 239.359375 C 417.167969 239.359375 412.804688 242.359375 412.804688 246.164062 C 412.804688 249.976562 417.167969 253.050781 422.480469 253.050781 C 427.882812 252.980469 432.246094 249.898438 432.246094 246.164062 Z M 427.566406 250.710938 L 424.863281 250.710938 C 424.761719 250.265625 424.34375 247.925781 424.34375 247.851562 C 424.140625 247.335938 423.925781 247.046875 423 247.046875 L 420.703125 247.046875 L 420.703125 250.710938 L 418.207031 250.710938 L 418.207031 241.554688 L 422.683594 241.554688 C 424.242188 241.554688 427.257812 241.554688 427.257812 243.96875 C 427.257812 245.65625 425.699219 246.023438 424.761719 246.238281 C 426.527344 246.316406 426.636719 247.121094 426.945312 248.289062 C 427.046875 249.023438 427.257812 250.265625 427.566406 250.710938 Z M 424.660156 244.261719 C 424.660156 243.019531 423.40625 243.019531 422.785156 243.019531 L 420.703125 243.019531 L 420.703125 245.582031 L 422.683594 245.582031 C 424.34375 245.582031 424.660156 244.773438 424.660156 244.261719 Z M 142.769531 139.890625 C 142.769531 137.917969 141.3125 136.160156 138.917969 135.203125 L 75.183594 109.351562 C 74.140625 108.910156 72.886719 108.691406 71.644531 108.621094 L 71.023438 108.621094 C 69.769531 108.621094 68.628906 108.910156 67.484375 109.351562 L 3.84375 135.203125 C 1.457031 136.160156 0 137.988281 0 139.890625 L 0.101562 209.472656 C 0.101562 210.425781 0.835938 211.304688 1.976562 211.8125 C 3.121094 212.332031 4.578125 212.332031 5.820312 211.8125 L 43.671875 196.511719 C 46.066406 195.484375 47.515625 193.726562 47.515625 191.824219 L 47.515625 159.300781 C 47.515625 157.398438 48.972656 155.566406 51.367188 154.613281 L 67.484375 148.09375 C 68.730469 147.582031 69.984375 147.359375 71.328125 147.359375 C 72.683594 147.359375 74.03125 147.582031 75.183594 148.09375 L 91.300781 154.613281 C 93.683594 155.566406 95.140625 157.398438 95.140625 159.300781 L 95.140625 191.824219 C 95.140625 193.726562 96.601562 195.554688 98.984375 196.511719 L 136.835938 211.8125 C 137.980469 212.332031 139.539062 212.332031 140.691406 211.8125 C 141.832031 211.375 142.554688 210.425781 142.554688 209.472656 Z M 491.308594 63.941406 L 491.308594 193.136719 C 491.308594 195.046875 489.851562 196.878906 487.464844 197.824219 L 423.722656 223.753906 C 421.328125 224.710938 418.421875 224.710938 416.027344 223.753906 L 352.292969 197.824219 C 349.894531 196.878906 348.4375 195.046875 348.4375 193.136719 L 348.4375 141.285156 C 348.4375 139.382812 349.894531 137.550781 352.292969 136.597656 L 416.027344 110.667969 C 418.421875 109.71875 421.328125 109.71875 423.722656 110.667969 L 439.636719 117.117188 C 441.398438 117.847656 443.683594 116.894531 443.683594 115.5 L 443.683594 46.652344 C 443.683594 44.605469 446.800781 43.285156 449.402344 44.3125 L 487.355469 59.253906 C 489.75 60.128906 491.308594 61.960938 491.308594 63.941406 Z M 443.480469 158.347656 C 443.480469 157.835938 443.0625 157.398438 442.539062 157.175781 L 420.703125 148.242188 C 420.082031 148.019531 419.359375 148.019531 418.726562 148.242188 L 396.890625 157.175781 C 396.269531 157.398438 395.964844 157.835938 395.964844 158.347656 L 395.964844 176.148438 C 395.964844 176.65625 396.371094 177.101562 396.890625 177.316406 L 418.726562 186.179688 C 419.359375 186.402344 420.082031 186.402344 420.601562 186.179688 L 442.4375 177.316406 C 443.0625 177.101562 443.375 176.65625 443.375 176.148438 L 443.375 158.347656 Z M 661.636719 157.835938 C 664.019531 156.882812 665.476562 155.050781 665.476562 153.148438 L 665.476562 140.625 C 665.476562 138.722656 664.019531 136.890625 661.636719 135.9375 L 598.308594 110.007812 C 595.914062 109.058594 593.007812 109.058594 590.613281 110.007812 L 526.867188 135.9375 C 524.480469 136.890625 523.023438 138.722656 523.023438 140.625 L 523.023438 192.484375 C 523.023438 194.457031 524.480469 196.21875 526.867188 197.164062 L 590.195312 222.585938 C 592.488281 223.53125 595.394531 223.53125 597.789062 222.585938 L 636.046875 207.570312 C 638.648438 206.542969 638.648438 203.90625 636.046875 202.882812 L 571.894531 176.953125 C 570.652344 176.441406 569.917969 175.558594 569.917969 174.609375 L 569.917969 158.347656 C 569.917969 157.398438 570.652344 156.515625 571.894531 156.007812 L 591.855469 147.878906 C 593.007812 147.359375 594.566406 147.359375 595.707031 147.878906 L 615.667969 156.007812 C 616.8125 156.515625 617.648438 157.398438 617.648438 158.347656 L 617.648438 171.09375 C 617.648438 173.144531 620.867188 174.460938 623.46875 173.441406 Z M 581.253906 160.398438 C 580.835938 160.621094 580.53125 160.910156 580.53125 161.277344 L 580.53125 171.242188 C 580.53125 171.609375 580.835938 171.976562 581.253906 172.117188 L 593.527344 177.101562 C 593.933594 177.316406 594.566406 177.316406 594.976562 177.101562 L 607.25 172.117188 C 607.667969 171.898438 607.972656 171.609375 607.972656 171.242188 L 607.972656 161.277344 C 607.972656 160.910156 607.667969 160.542969 607.25 160.398438 L 594.976562 155.417969 C 594.566406 155.203125 593.933594 155.203125 593.527344 155.417969 Z M 316.9375 192.261719 L 316.9375 140.695312 C 316.9375 138.792969 315.265625 136.960938 312.878906 136.007812 L 249.351562 110.230469 C 247.160156 109.351562 244.152344 109.203125 241.652344 110.230469 L 178.125 136.007812 C 175.726562 136.960938 174.066406 138.722656 174.066406 140.695312 L 174.066406 192.261719 C 174.066406 194.3125 176.042969 196.066406 178.226562 196.949219 L 241.859375 222.726562 C 244.355469 223.753906 247.269531 223.683594 249.554688 222.726562 L 312.984375 196.949219 C 314.859375 196.21875 316.203125 194.96875 316.722656 193.503906 C 316.824219 193.136719 316.9375 192.699219 316.9375 192.261719 Z M 239.675781 100.78125 L 238.839844 101.144531 L 239.992188 101.144531 Z M 318.90625 196.144531 L 318.496094 195.628906 L 318.496094 196.289062 Z M 318.90625 196.144531 "/>
</g>
</svg>
