<?xml version="1.0" encoding="UTF-8"?>
<svg xmlns="http://www.w3.org/2000/svg" xmlns:xlink="http://www.w3.org/1999/xlink" width="666px" height="375px" viewBox="0 0 666 375" version="1.1">
<g id="surface1">
<path style=" stroke:none;fill-rule:nonzero;fill:rgb(46.27451%,29.019608%,73.72549%);fill-opacity:1;" d="M 461.46875 260.855469 C 486.042969 259.351562 504.691406 246.835938 503.84375 231.816406 C 502.996094 216.796875 481.808594 204.78125 456.382812 204.78125 L 454.6875 204.78125 C 428.414062 205.28125 408.074219 218.296875 408.921875 233.816406 C 409.769531 241.328125 414.851562 247.835938 422.480469 252.34375 C 393.664062 285.886719 349.59375 310.417969 283.488281 330.945312 C 238.570312 344.964844 191.957031 349.96875 145.347656 346.464844 C 107.207031 343.460938 77.542969 333.449219 58.898438 316.925781 C 31.777344 292.394531 29.238281 265.859375 52.121094 239.324219 C 68.222656 220.300781 93.644531 206.28125 109.75 199.273438 C 106.359375 192.765625 101.273438 181.75 98.730469 173.742188 C -24.15625 226.308594 -11.445312 297.402344 25.847656 330.945312 C 53.8125 355.980469 110.597656 371.5 173.3125 371.5 C 190.261719 371.5 207.210938 370.496094 224.164062 367.996094 C 332.644531 355.476562 414.855469 317.425781 461.46875 260.855469 Z M 610.632812 198.773438 C 546.21875 154.214844 451.296875 129.683594 342.816406 129.683594 L 329.257812 129.683594 C 321.628906 120.671875 305.523438 114.664062 287.726562 114.664062 L 286.03125 114.664062 C 259.761719 115.164062 239.421875 128.179688 240.265625 143.703125 C 241.117188 158.722656 262.300781 170.738281 287.726562 170.738281 L 289.421875 170.738281 C 308.066406 170.234375 324.171875 163.226562 330.949219 153.714844 L 346.207031 153.714844 C 410.617188 153.714844 471.636719 164.726562 526.726562 186.257812 C 569.101562 202.777344 599.613281 224.308594 616.5625 250.339844 C 630.96875 271.367188 630.121094 291.894531 614.867188 309.417969 C 591.136719 335.953125 551.304688 350.472656 498.757812 350.472656 C 464.859375 350.472656 432.652344 344.460938 415.699219 339.957031 C 406.378906 344.964844 389.429688 352.972656 377.5625 357.980469 C 414.007812 367.992188 451.296875 373.5 486.894531 373.5 C 568.253906 373.5 628.429688 346.964844 651.3125 320.433594 C 675.886719 291.394531 674.191406 241.328125 610.632812 198.773438 Z M 180.09375 269.363281 C 180.941406 284.382812 202.128906 296.398438 227.554688 296.398438 L 229.25 296.398438 C 255.523438 295.898438 275.863281 282.878906 275.015625 267.359375 C 274.167969 252.339844 252.980469 240.328125 227.554688 240.328125 L 225.859375 240.328125 C 224.164062 240.328125 221.621094 240.328125 219.929688 240.824219 C 185.179688 206.78125 170.773438 169.734375 175.859375 129.683594 C 179.246094 99.644531 196.195312 73.609375 225.859375 52.082031 C 250.4375 33.554688 297.898438 24.542969 330.105469 24.046875 C 419.9375 23.042969 458.074219 89.128906 460.621094 115.664062 C 471.636719 117.164062 490.28125 120.671875 502.996094 123.175781 C 492.824219 42.070312 408.074219 0.015625 326.714844 0.015625 C 250.4375 0.015625 180.09375 32.558594 152.125 80.621094 C 113.140625 144.703125 138.5625 206.28125 186.023438 254.84375 C 181.789062 258.347656 179.246094 263.855469 180.09375 269.363281 Z M 180.09375 269.363281 "/>
</g>
</svg>
